{
  "accessors": [
    {
      "bufferView": 2,
      "componentType": 5126,
      "count": 5348,
      "max": [
        1.5421600341796875,
        1.2085399627685547,
        4.9704499244689941
      ],
      "min": [
        -1.2112699747085571,
        -1.4090900421142578,
        -0.013140000402927399
      ],
      "type": "VEC3"
    },
    {
      "bufferView": 2,
      "byteOffset": 64176,
      "componentType": 5126,
      "count": 5348,
      "max": [
        1,
        1,
        1
      ],
      "min": [
        -1,
        -1,
        -1
      ],
      "type": "VEC3"
    },
    {
      "bufferView": 1,
      "componentType": 5126,
      "count": 5348,
      "max": [
        0.74542999267578125,
        0.99175000190734863
      ],
      "min": [
        0.0061900001019239426,
        0.0082499999552965164
      ],
      "type": "VEC2"
    },
    {
      "bufferView": 0,
      "componentType": 5125,
      "count": 8397,
      "max": [
        5347
      ],
      "min": [
        0
      ],
      "type": "SCALAR"
    },
    {
      "bufferView": 2,
      "byteOffset": 128352,
      "componentType": 5126,
      "count": 1008,
      "max": [
        1,
        1,
        0.0530100017786026
      ],
      "min": [
        -1,
        -1,
        -0.00050999998347833753
      ],
      "type": "VEC3"
    },
    {
      "bufferView": 2,
      "byteOffset": 140448,
      "componentType": 5126,
      "count": 1008,
      "max": [
        0.51643955707550049,
        0.48661103844642639,
        1
      ],
      "min": [
        -0.3506811261177063,
        -0.40544787049293518,
        0.85609930753707886
      ],
      "type": "VEC3"
    },
    {
      "bufferView": 1,
      "byteOffset": 42784,
      "componentType": 5126,
      "count": 1008,
      "max": [
        0.95872002840042114,
        0.95872002840042114
      ],
      "min": [
        0.041280001401901245,
        0.041280001401901245
      ],
      "type": "VEC2"
    },
    {
      "bufferView": 0,
      "byteOffset": 33588,
      "componentType": 5125,
      "count": 1020,
      "max": [
        1007
      ],
      "min": [
        0
      ],
      "type": "SCALAR"
    },
    {
      "bufferView": 2,
      "byteOffset": 152544,
      "componentType": 5126,
      "count": 682,
      "max": [
        0.61019998788833618,
        0,
        0.4177899956703186
      ],
      "min": [
        -2.8463399410247803,
        -0.22741000354290009,
        -0.70175999402999878
      ],
      "type": "VEC3"
    },
    {
      "bufferView": 2,
      "byteOffset": 160728,
      "componentType": 5126,
      "count": 682,
      "max": [
        0.92642319202423096,
        0.81030970811843872,
        0.96613126993179321
      ],
      "min": [
        -0.90309613943099976,
        -1,
        -0.98589044809341431
      ],
      "type": "VEC3"
    },
    {
      "bufferView": 1,
      "byteOffset": 50848,
      "componentType": 5126,
      "count": 682,
      "max": [
        0.97091001272201538,
        0.97038000822067261
      ],
      "min": [
        0.029090000316500664,
        0.02961999922990799
      ],
      "type": "VEC2"
    },
    {
      "bufferView": 0,
      "byteOffset": 37668,
      "componentType": 5125,
      "count": 1104,
      "max": [
        681
      ],
      "min": [
        0
      ],
      "type": "SCALAR"
    },
    {
      "bufferView": 2,
      "byteOffset": 168912,
      "componentType": 5126,
      "count": 11620,
      "max": [
        14.704219818115234,
        3.6848900318145752,
        9.83782958984375
      ],
      "min": [
        -20.190280914306641,
        -2.7442800998687744,
        -27.959030151367188
      ],
      "type": "VEC3"
    },
    {
      "bufferView": 2,
      "byteOffset": 308352,
      "componentType": 5126,
      "count": 11620,
      "max": [
        0.99943512678146362,
        0.97870546579360962,
        0.9989808201789856
      ],
      "min": [
        -0.99946796894073486,
        -0.98239684104919434,
        -0.99932342767715454
      ],
      "type": "VEC3"
    },
    {
      "bufferView": 1,
      "byteOffset": 56304,
      "componentType": 5126,
      "count": 11620,
      "max": [
        0.99766999483108521,
        0.99766999483108521
      ],
      "min": [
        0.0023300000466406345,
        0.0023300000466406345
      ],
      "type": "VEC2"
    },
    {
      "bufferView": 0,
      "byteOffset": 42084,
      "componentType": 5125,
      "count": 17952,
      "max": [
        11619
      ],
      "min": [
        0
      ],
      "type": "SCALAR"
    }
  ],
  "asset": {
    "extras": {
      "author": "pinqin (https://sketchfab.com/pinqin)",
      "license": "CC-BY-4.0 (http://creativecommons.org/licenses/by/4.0/)",
      "source": "https://sketchfab.com/3d-models/spongebobs-house-6de3d56376c64371a8d350834b6c8f5a",
      "title": "Spongebob's House"
    },
    "generator": "Sketchfab-8.47.0",
    "version": "2.0"
  },
  "bufferViews": [
    {
      "buffer": 0,
      "byteLength": 113892,
      "byteOffset": 0,
      "name": "floatBufferViews",
      "target": 34963
    },
    {
      "buffer": 0,
      "byteLength": 149264,
      "byteOffset": 113892,
      "byteStride": 8,
      "name": "floatBufferViews",
      "target": 34962
    },
    {
      "buffer": 0,
      "byteLength": 447792,
      "byteOffset": 263156,
      "byteStride": 12,
      "name": "floatBufferViews",
      "target": 34962
    }
  ],
  "buffers": [
    {
      "byteLength": 710948,
      "uri": "scene.bin"
    }
  ],
  "extensionsRequired": [
    "KHR_materials_pbrSpecularGlossiness"
  ],
  "extensionsUsed": [
    "KHR_materials_pbrSpecularGlossiness"
  ],
  "images": [
    {
      "uri": "textures/flovers_diffuse.png"
    },
    {
      "uri": "textures/stones_diffuse.png"
    },
    {
      "uri": "textures/dirt_diffuse.png"
    },
    {
      "uri": "textures/home_diffuse.png"
    }
  ],
  "materials": [
    {
      "doubleSided": true,
      "extensions": {
        "KHR_materials_pbrSpecularGlossiness": {
          "diffuseFactor": [
            1,
            1,
            1,
            1
          ],
          "diffuseTexture": {
            "index": 0,
            "texCoord": 0
          },
          "glossinessFactor": 1,
          "specularFactor": [
            0,
            0,
            0
          ]
        }
      },
      "name": "flovers"
    },
    {
      "doubleSided": true,
      "extensions": {
        "KHR_materials_pbrSpecularGlossiness": {
          "diffuseFactor": [
            1,
            1,
            1,
            1
          ],
          "diffuseTexture": {
            "index": 1,
            "texCoord": 0
          },
          "glossinessFactor": 1,
          "specularFactor": [
            0,
            0,
            0
          ]
        }
      },
      "name": "stones"
    },
    {
      "doubleSided": true,
      "extensions": {
        "KHR_materials_pbrSpecularGlossiness": {
          "diffuseFactor": [
            1,
            1,
            1,
            1
          ],
          "diffuseTexture": {
            "index": 2,
            "texCoord": 0
          },
          "glossinessFactor": 1,
          "specularFactor": [
            0,
            0,
            0
          ]
        }
      },
      "name": "dirt"
    },
    {
      "doubleSided": true,
      "extensions": {
        "KHR_materials_pbrSpecularGlossiness": {
          "diffuseFactor": [
            1,
            1,
            1,
            1
          ],
          "diffuseTexture": {
            "index": 3,
            "texCoord": 0
          },
          "glossinessFactor": 0,
          "specularFactor": [
            0,
            0,
            0
          ]
        }
      },
      "name": "home"
    }
  ],
  "meshes": [
    {
      "name": "Circle.001_0",
      "primitives": [
        {
          "attributes": {
            "NORMAL": 1,
            "POSITION": 0,
            "TEXCOORD_0": 2
          },
          "indices": 3,
          "material": 3,
          "mode": 4
        }
      ]
    },
    {
      "name": "Plane_0",
      "primitives": [
        {
          "attributes": {
            "NORMAL": 5,
            "POSITION": 4,
            "TEXCOORD_0": 6
          },
          "indices": 7,
          "material": 2,
          "mode": 4
        }
      ]
    },
    {
      "name": "Plane.001_0",
      "primitives": [
        {
          "attributes": {
            "NORMAL": 9,
            "POSITION": 8,
            "TEXCOORD_0": 10
          },
          "indices": 11,
          "material": 1,
          "mode": 4
        }
      ]
    },
    {
      "name": "Circle_0",
      "primitives": [
        {
          "attributes": {
            "NORMAL": 13,
            "POSITION": 12,
            "TEXCOORD_0": 14
          },
          "indices": 15,
          "material": 0,
          "mode": 4
        }
      ]
    }
  ],
  "nodes": [
    {
      "children": [
        1
      ],
      "name": "RootNode (gltf orientation matrix)",
      "rotation": [
        -0.70710678118654746,
        -0,
        -0,
        0.70710678118654757
      ]
    },
    {
      "children": [
        2
      ],
      "name": "RootNode (model correction matrix)"
    },
    {
      "children": [
        3,
        5,
        7,
        9,
        11
      ],
      "name": "Root"
    },
    {
      "children": [
        4
      ],
      "matrix": [
        0.83507000000000009,
        0.54737000000000002,
        -0.05519000000000001,
        0,
        -0.40837000000000007,
        0.68395000000000017,
        0.60452000000000006,
        0,
        0.36865000000000003,
        -0.48228000000000004,
        0.7946700000000001,
        0,
        4.0762500000000008,
        1.00545,
        5.9038600000000008,
        1
      ],
      "name": "Lamp"
    },
    {
      "name": "Lamp"
    },
    {
      "children": [
        6
      ],
      "matrix": [
        1.1000000000000001,
        0,
        0,
        0,
        0,
        1.1000000000000001,
        0,
        0,
        0,
        0,
        1.1000000000000001,
        0,
        0,
        0,
        0,
        1
      ],
      "name": "Circle.001"
    },
    {
      "mesh": 0,
      "name": "Circle.001_0"
    },
    {
      "children": [
        8
      ],
      "matrix": [
        3,
        0,
        0,
        0,
        0,
        3,
        0,
        0,
        0,
        0,
        3,
        0,
        0,
        -1,
        0,
        1
      ],
      "name": "Plane"
    },
    {
      "mesh": 1,
      "name": "Plane_0"
    },
    {
      "children": [
        10
      ],
      "matrix": [
        0.70000000000000007,
        0,
        0,
        0,
        0,
        0,
        -1,
        0,
        0,
        1.2,
        0,
        0,
        0,
        -2,
        -0,
        1
      ],
      "name": "Plane.001"
    },
    {
      "mesh": 2,
      "name": "Plane.001_0"
    },
    {
      "children": [
        12
      ],
      "matrix": [
        0.10000000000000001,
        0,
        0,
        0,
        0,
        -0,
        0.10000000000000001,
        0,
        0,
        -0.10000000000000001,
        -0,
        0,
        0,
        -1.3,
        0.23721000000000003,
        1
      ],
      "name": "Circle"
    },
    {
      "mesh": 3,
      "name": "Circle_0"
    }
  ],
  "samplers": [
    {
      "magFilter": 9729,
      "minFilter": 9987,
      "wrapS": 10497,
      "wrapT": 10497
    }
  ],
  "scene": 0,
  "scenes": [
    {
      "name": "OSG_Scene",
      "nodes": [
        0
      ]
    }
  ],
  "textures": [
    {
      "sampler": 0,
      "source": 0
    },
    {
      "sampler": 0,
      "source": 1
    },
    {
      "sampler": 0,
      "source": 2
    },
    {
      "sampler": 0,
      "source": 3
    }
  ]
}

