{
  "accessors": [
    {
      "bufferView": 2,
      "componentType": 5126,
      "count": 65532,
      "max": [
        0.63644075393676758,
        2.5245311260223389,
        0.50459420680999756
      ],
      "min": [
        -0.64902758598327637,
        1.4094939231872559,
        -0.62069523334503174
      ],
      "type": "VEC3"
    },
    {
      "bufferView": 2,
      "byteOffset": 786384,
      "componentType": 5126,
      "count": 65532,
      "max": [
        0.99999558925628662,
        0.99274939298629761,
        0.98935294151306152
      ],
      "min": [
        -0.99997860193252563,
        -0.97573840618133545,
        -0.87197816371917725
      ],
      "type": "VEC3"
    },
    {
      "bufferView": 1,
      "componentType": 5126,
      "count": 65532,
      "max": [
        0.2905920147895813,
        0.99932897090911865
      ],
      "min": [
        0.00062200002139434218,
        0.43989300727844238
      ],
      "type": "VEC2"
    },
    {
      "bufferView": 0,
      "componentType": 5125,
      "count": 65532,
      "max": [
        65531
      ],
      "min": [
        0
      ],
      "type": "SCALAR"
    },
    {
      "bufferView": 2,
      "byteOffset": 1572768,
      "componentType": 5126,
      "count": 65532,
      "max": [
        0.63715654611587524,
        2.3801617622375488,
        0.62367260456085205
      ],
      "min": [
        -0.53580302000045776,
        1.2621968984603882,
        -0.68227654695510864
      ],
      "type": "VEC3"
    },
    {
      "bufferView": 2,
      "byteOffset": 2359152,
      "componentType": 5126,
      "count": 65532,
      "max": [
        0.9997972846031189,
        0.90976649522781372,
        0.99997580051422119
      ],
      "min": [
        -0.9470977783203125,
        -0.99997472763061523,
        -0.80828332901000977
      ],
      "type": "VEC3"
    },
    {
      "bufferView": 1,
      "byteOffset": 524256,
      "componentType": 5126,
      "count": 65532,
      "max": [
        0.24711243808269501,
        0.86212402582168579
      ],
      "min": [
        0.00061400001868605614,
        0.029450999572873116
      ],
      "type": "VEC2"
    },
    {
      "bufferView": 0,
      "byteOffset": 262128,
      "componentType": 5125,
      "count": 65532,
      "max": [
        65531
      ],
      "min": [
        0
      ],
      "type": "SCALAR"
    },
    {
      "bufferView": 2,
      "byteOffset": 3145536,
      "componentType": 5126,
      "count": 65532,
      "max": [
        0.61361706256866455,
        2.5280215740203857,
        0.62448197603225708
      ],
      "min": [
        -0.57425582408905029,
        1.3371360301971436,
        -0.78126907348632812
      ],
      "type": "VEC3"
    },
    {
      "bufferView": 2,
      "byteOffset": 3931920,
      "componentType": 5126,
      "count": 65532,
      "max": [
        0.99961423873901367,
        0.9990885853767395,
        0.99998784065246582
      ],
      "min": [
        -0.95036137104034424,
        -0.99839276075363159,
        -0.99999773502349854
      ],
      "type": "VEC3"
    },
    {
      "bufferView": 1,
      "byteOffset": 1048512,
      "componentType": 5126,
      "count": 65532,
      "max": [
        0.6228410005569458,
        0.95449697971343994
      ],
      "min": [
        0.00062499998603016138,
        0.004621999803930521
      ],
      "type": "VEC2"
    },
    {
      "bufferView": 0,
      "byteOffset": 524256,
      "componentType": 5125,
      "count": 65532,
      "max": [
        65531
      ],
      "min": [
        0
      ],
      "type": "SCALAR"
    },
    {
      "bufferView": 2,
      "byteOffset": 4718304,
      "componentType": 5126,
      "count": 49911,
      "max": [
        1.6628148555755615,
        2.5280215740203857,
        0.61571848392486572
      ],
      "min": [
        -0.64902758598327637,
        1.2704724073410034,
        -0.75746655464172363
      ],
      "type": "VEC3"
    },
    {
      "bufferView": 2,
      "byteOffset": 5317236,
      "componentType": 5126,
      "count": 49911,
      "max": [
        0.99993628263473511,
        0.99995380640029907,
        0.99981516599655151
      ],
      "min": [
        -0.99966210126876831,
        -0.99951905012130737,
        -0.99801915884017944
      ],
      "type": "VEC3"
    },
    {
      "bufferView": 1,
      "byteOffset": 1572768,
      "componentType": 5126,
      "count": 49911,
      "max": [
        0.95156198740005493,
        0.99931097030639648
      ],
      "min": [
        0.062879003584384918,
        0.0018469999777153134
      ],
      "type": "VEC2"
    },
    {
      "bufferView": 0,
      "byteOffset": 786384,
      "componentType": 5125,
      "count": 49911,
      "max": [
        49910
      ],
      "min": [
        0
      ],
      "type": "SCALAR"
    }
  ],
  "asset": {
    "extras": {
      "author": "m3rgus (https://sketchfab.com/m3rgus)",
      "license": "CC-BY-4.0 (http://creativecommons.org/licenses/by/4.0/)",
      "source": "https://sketchfab.com/3d-models/rock-4c42d0ea8dbd456f9c923de0203b421f",
      "title": "Rock"
    },
    "generator": "Sketchfab-8.75.0",
    "version": "2.0"
  },
  "bufferViews": [
    {
      "buffer": 0,
      "byteLength": 986028,
      "byteOffset": 0,
      "name": "floatBufferViews",
      "target": 34963
    },
    {
      "buffer": 0,
      "byteLength": 1972056,
      "byteOffset": 986028,
      "byteStride": 8,
      "name": "floatBufferViews",
      "target": 34962
    },
    {
      "buffer": 0,
      "byteLength": 5916168,
      "byteOffset": 2958084,
      "byteStride": 12,
      "name": "floatBufferViews",
      "target": 34962
    }
  ],
  "buffers": [
    {
      "byteLength": 8874252,
      "uri": "scene.bin"
    }
  ],
  "extensionsRequired": [
    "KHR_materials_pbrSpecularGlossiness"
  ],
  "extensionsUsed": [
    "KHR_materials_pbrSpecularGlossiness"
  ],
  "images": [
    {
      "uri": "textures/TextureAtlas_1001_diffuse.png"
    },
    {
      "uri": "textures/TextureAtlas_1001_specularGlossiness.png"
    }
  ],
  "materials": [
    {
      "doubleSided": true,
      "extensions": {
        "KHR_materials_pbrSpecularGlossiness": {
          "diffuseFactor": [
            1,
            1,
            1,
            1
          ],
          "diffuseTexture": {
            "index": 0,
            "texCoord": 0
          },
          "glossinessFactor": 1,
          "specularFactor": [
            0.17195489727547442,
            0.17195489727547442,
            0.17195489727547442
          ],
          "specularGlossinessTexture": {
            "index": 1,
            "texCoord": 0
          }
        }
      },
      "name": "TextureAtlas_1001"
    }
  ],
  "meshes": [
    {
      "primitives": [
        {
          "attributes": {
            "NORMAL": 1,
            "POSITION": 0,
            "TEXCOORD_0": 2
          },
          "indices": 3,
          "material": 0,
          "mode": 4
        }
      ]
    },
    {
      "primitives": [
        {
          "attributes": {
            "NORMAL": 5,
            "POSITION": 4,
            "TEXCOORD_0": 6
          },
          "indices": 7,
          "material": 0,
          "mode": 4
        }
      ]
    },
    {
      "primitives": [
        {
          "attributes": {
            "NORMAL": 9,
            "POSITION": 8,
            "TEXCOORD_0": 10
          },
          "indices": 11,
          "material": 0,
          "mode": 4
        }
      ]
    },
    {
      "primitives": [
        {
          "attributes": {
            "NORMAL": 13,
            "POSITION": 12,
            "TEXCOORD_0": 14
          },
          "indices": 15,
          "material": 0,
          "mode": 4
        }
      ]
    }
  ],
  "nodes": [
    {
      "children": [
        1
      ],
      "name": "RootNode (gltf orientation matrix)",
      "rotation": [
        -0.70710678118654746,
        -0,
        -0,
        0.70710678118654757
      ]
    },
    {
      "children": [
        2
      ],
      "matrix": [
        0.9436030642186779,
        -0.054200062954206762,
        -0.19033651612700986,
        0,
        0.021493185879677967,
        0.9498520043629668,
        -0.16392547749542619,
        0,
        0.19673249945314719,
        0.15619178193203709,
        0.93083445782177066,
        0,
        1.2344206571578979,
        0.89126527309417725,
        0.081295348703861237,
        1
      ],
      "name": "RootNode (model correction matrix)"
    },
    {
      "children": [
        3
      ],
      "name": "root"
    },
    {
      "children": [
        4
      ],
      "matrix": [
        1,
        0,
        0,
        0,
        0,
        2.2204460492503131e-16,
        1,
        0,
        0,
        -1,
        2.2204460492503131e-16,
        0,
        0,
        0,
        0,
        1
      ],
      "name": "GLTF_SceneRootNode"
    },
    {
      "children": [
        5,
        6,
        7,
        8
      ],
      "matrix": [
        -0.84908946851943257,
        0.031779649448327368,
        -0.52729226082916236,
        0,
        -0.36750602062453896,
        -0.75256331418528277,
        0.54643186487171447,
        0,
        -0.37945539824082608,
        0.65775262220944819,
        0.65067279697440172,
        0,
        0.97514468431472778,
        -4.9200000762939453,
        -2.0942580699920654,
        1
      ],
      "name": "texturedMesh_2"
    },
    {
      "mesh": 0,
      "name": ""
    },
    {
      "mesh": 1,
      "name": ""
    },
    {
      "mesh": 2,
      "name": ""
    },
    {
      "mesh": 3,
      "name": ""
    }
  ],
  "samplers": [
    {
      "magFilter": 9729,
      "minFilter": 9987,
      "wrapS": 10497,
      "wrapT": 10497
    }
  ],
  "scene": 0,
  "scenes": [
    {
      "name": "OSG_Scene",
      "nodes": [
        0
      ]
    }
  ],
  "textures": [
    {
      "sampler": 0,
      "source": 0
    },
    {
      "sampler": 0,
      "source": 1
    }
  ]
}

