{
  "accessors": [
    {
      "bufferView": 2,
      "componentType": 5126,
      "count": 378,
      "max": [
        1.1972957849502563,
        0.33641910552978516,
        0.31310653686523438
      ],
      "min": [
        -0.90000712871551514,
        -0.33641910552978516,
        -0.12090649455785751
      ],
      "type": "VEC3"
    },
    {
      "bufferView": 2,
      "byteOffset": 4536,
      "componentType": 5126,
      "count": 378,
      "max": [
        0.99112403392791748,
        0.99948734045028687,
        0.99999839067459106
      ],
      "min": [
        -0.99987006187438965,
        -0.99948734045028687,
        -0.95343875885009766
      ],
      "type": "VEC3"
    },
    {
      "bufferView": 3,
      "componentType": 5126,
      "count": 378,
      "max": [
        0.63634961843490601,
        1,
        0.99996787309646606,
        1
      ],
      "min": [
        -0.63636714220046997,
        -1,
        -0.99999630451202393,
        1
      ],
      "type": "VEC4"
    },
    {
      "bufferView": 1,
      "componentType": 5126,
      "count": 378,
      "max": [
        0.99268072843551636,
        0.99433165788650513
      ],
      "min": [
        0.13949963450431824,
        0.2244548499584198
      ],
      "type": "VEC2"
    },
    {
      "bufferView": 1,
      "byteOffset": 3024,
      "componentType": 5126,
      "count": 378,
      "max": [
        0.99268072843551636,
        0.99433165788650513
      ],
      "min": [
        0.13949963450431824,
        0.2244548499584198
      ],
      "type": "VEC2"
    },
    {
      "bufferView": 1,
      "byteOffset": 6048,
      "componentType": 5126,
      "count": 378,
      "max": [
        0.99268072843551636,
        0.99433165788650513
      ],
      "min": [
        0.13949963450431824,
        0.2244548499584198
      ],
      "type": "VEC2"
    },
    {
      "bufferView": 0,
      "componentType": 5125,
      "count": 1416,
      "max": [
        377
      ],
      "min": [
        0
      ],
      "type": "SCALAR"
    },
    {
      "bufferView": 2,
      "byteOffset": 9072,
      "componentType": 5126,
      "count": 88,
      "max": [
        1.0368753671646118,
        0.32156047224998474,
        0.18097275495529175
      ],
      "min": [
        -0.86492913961410522,
        -0.31941702961921692,
        0.079813607037067413
      ],
      "type": "VEC3"
    },
    {
      "bufferView": 2,
      "byteOffset": 10128,
      "componentType": 5126,
      "count": 88,
      "max": [
        1,
        0.74709993600845337,
        1
      ],
      "min": [
        -1,
        -0.72938781976699829,
        -0.001464438159018755
      ],
      "type": "VEC3"
    },
    {
      "bufferView": 3,
      "byteOffset": 6048,
      "componentType": 5126,
      "count": 88,
      "max": [
        0.63360142707824707,
        1,
        0.57857048511505127,
        1
      ],
      "min": [
        -0.61661815643310547,
        -1,
        -0.53862243890762329,
        1
      ],
      "type": "VEC4"
    },
    {
      "bufferView": 1,
      "byteOffset": 9072,
      "componentType": 5126,
      "count": 88,
      "max": [
        0.48282632231712341,
        0.34931951761245728
      ],
      "min": [
        0.11250874400138855,
        0.061488747596740723
      ],
      "type": "VEC2"
    },
    {
      "bufferView": 1,
      "byteOffset": 9776,
      "componentType": 5126,
      "count": 88,
      "max": [
        0.48282632231712341,
        0.34931951761245728
      ],
      "min": [
        0.11250874400138855,
        0.061488747596740723
      ],
      "type": "VEC2"
    },
    {
      "bufferView": 1,
      "byteOffset": 10480,
      "componentType": 5126,
      "count": 88,
      "max": [
        0.48282632231712341,
        0.34931951761245728
      ],
      "min": [
        0.11250874400138855,
        0.061488747596740723
      ],
      "type": "VEC2"
    },
    {
      "bufferView": 0,
      "byteOffset": 5664,
      "componentType": 5125,
      "count": 198,
      "max": [
        87
      ],
      "min": [
        0
      ],
      "type": "SCALAR"
    },
    {
      "bufferView": 2,
      "byteOffset": 11184,
      "componentType": 5126,
      "count": 120,
      "max": [
        0.65460222959518433,
        0.24000817537307739,
        0.030407566577196121
      ],
      "min": [
        -0.85684818029403687,
        -0.24050451815128326,
        -0.0056515485048294067
      ],
      "type": "VEC3"
    },
    {
      "bufferView": 2,
      "byteOffset": 12624,
      "componentType": 5126,
      "count": 120,
      "max": [
        1,
        1,
        1
      ],
      "min": [
        -1,
        -1,
        0
      ],
      "type": "VEC3"
    },
    {
      "bufferView": 3,
      "byteOffset": 7456,
      "componentType": 5126,
      "count": 120,
      "max": [
        0.01308903843164444,
        0,
        0.99991488456726074,
        1
      ],
      "min": [
        -8.7225835159188136e-06,
        -1,
        -0.99991518259048462,
        1
      ],
      "type": "VEC4"
    },
    {
      "bufferView": 1,
      "byteOffset": 11184,
      "componentType": 5126,
      "count": 120,
      "max": [
        0.9092717170715332,
        0.9696882963180542
      ],
      "min": [
        0.0068092644214630127,
        0.12839540839195251
      ],
      "type": "VEC2"
    },
    {
      "bufferView": 1,
      "byteOffset": 12144,
      "componentType": 5126,
      "count": 120,
      "max": [
        0.9092717170715332,
        0.9696882963180542
      ],
      "min": [
        0.0068092644214630127,
        0.12839540839195251
      ],
      "type": "VEC2"
    },
    {
      "bufferView": 1,
      "byteOffset": 13104,
      "componentType": 5126,
      "count": 120,
      "max": [
        0.9092717170715332,
        0.9696882963180542
      ],
      "min": [
        0.0068092644214630127,
        0.12839540839195251
      ],
      "type": "VEC2"
    },
    {
      "bufferView": 0,
      "byteOffset": 6456,
      "componentType": 5125,
      "count": 180,
      "max": [
        119
      ],
      "min": [
        0
      ],
      "type": "SCALAR"
    },
    {
      "bufferView": 2,
      "byteOffset": 14064,
      "componentType": 5126,
      "count": 89,
      "max": [
        0.11384904384613037,
        0.22500176727771759,
        0.012017607688903809
      ],
      "min": [
        -0.093740403652191162,
        -0.19341209530830383,
        -0.010563269257545471
      ],
      "type": "VEC3"
    },
    {
      "bufferView": 2,
      "byteOffset": 15132,
      "componentType": 5126,
      "count": 89,
      "max": [
        0.99900144338607788,
        0.94500625133514404,
        0.9998440146446228
      ],
      "min": [
        -0.9999273419380188,
        -0.97341865301132202,
        -0.9998440146446228
      ],
      "type": "VEC3"
    },
    {
      "bufferView": 3,
      "byteOffset": 9376,
      "componentType": 5126,
      "count": 89,
      "max": [
        0.9397464394569397,
        0.35076954960823059,
        0.9998440146446228,
        1
      ],
      "min": [
        -0.93837249279022217,
        -0.34544110298156738,
        -0.9998440146446228,
        1
      ],
      "type": "VEC4"
    },
    {
      "bufferView": 1,
      "byteOffset": 14064,
      "componentType": 5126,
      "count": 89,
      "max": [
        0.89383435249328613,
        0.29154175519943237
      ],
      "min": [
        0.56893092393875122,
        0.053978115320205688
      ],
      "type": "VEC2"
    },
    {
      "bufferView": 1,
      "byteOffset": 14776,
      "componentType": 5126,
      "count": 89,
      "max": [
        0.89383435249328613,
        0.29154175519943237
      ],
      "min": [
        0.56893092393875122,
        0.053978115320205688
      ],
      "type": "VEC2"
    },
    {
      "bufferView": 1,
      "byteOffset": 15488,
      "componentType": 5126,
      "count": 89,
      "max": [
        0.89383435249328613,
        0.29154175519943237
      ],
      "min": [
        0.56893092393875122,
        0.053978115320205688
      ],
      "type": "VEC2"
    },
    {
      "bufferView": 0,
      "byteOffset": 7176,
      "componentType": 5125,
      "count": 276,
      "max": [
        88
      ],
      "min": [
        0
      ],
      "type": "SCALAR"
    },
    {
      "bufferView": 2,
      "byteOffset": 16200,
      "componentType": 5126,
      "count": 39,
      "max": [
        0.17819273471832275,
        0.4408913254737854,
        0.02300281822681427
      ],
      "min": [
        -0.17520815134048462,
        -0.45741996169090271,
        -0.015774503350257874
      ],
      "type": "VEC3"
    },
    {
      "bufferView": 2,
      "byteOffset": 16668,
      "componentType": 5126,
      "count": 39,
      "max": [
        0.96488392353057861,
        0.9814305305480957,
        0.99955803155899048
      ],
      "min": [
        -0.88284385204315186,
        -0.93829989433288574,
        -0.82807546854019165
      ],
      "type": "VEC3"
    },
    {
      "bufferView": 3,
      "byteOffset": 10800,
      "componentType": 5126,
      "count": 39,
      "max": [
        0.9618830680847168,
        0.97213840484619141,
        0.94158881902694702,
        1
      ],
      "min": [
        -0.78027904033660889,
        -0.97243267297744751,
        -0.96759897470474243,
        1
      ],
      "type": "VEC4"
    },
    {
      "bufferView": 1,
      "byteOffset": 16200,
      "componentType": 5126,
      "count": 39,
      "max": [
        0.95473361015319824,
        0.86928719282150269
      ],
      "min": [
        0.51469242572784424,
        0.18811917304992676
      ],
      "type": "VEC2"
    },
    {
      "bufferView": 1,
      "byteOffset": 16512,
      "componentType": 5126,
      "count": 39,
      "max": [
        0.95473361015319824,
        0.86928719282150269
      ],
      "min": [
        0.51469242572784424,
        0.18811917304992676
      ],
      "type": "VEC2"
    },
    {
      "bufferView": 1,
      "byteOffset": 16824,
      "componentType": 5126,
      "count": 39,
      "max": [
        0.95473361015319824,
        0.86928719282150269
      ],
      "min": [
        0.51469242572784424,
        0.18811917304992676
      ],
      "type": "VEC2"
    },
    {
      "bufferView": 0,
      "byteOffset": 8280,
      "componentType": 5125,
      "count": 120,
      "max": [
        38
      ],
      "min": [
        0
      ],
      "type": "SCALAR"
    },
    {
      "bufferView": 2,
      "byteOffset": 17136,
      "componentType": 5126,
      "count": 89,
      "max": [
        0.11384889483451843,
        0.22500167787075043,
        0.012017637491226196
      ],
      "min": [
        -0.093740552663803101,
        -0.19341215491294861,
        -0.010563239455223083
      ],
      "type": "VEC3"
    },
    {
      "bufferView": 2,
      "byteOffset": 18204,
      "componentType": 5126,
      "count": 89,
      "max": [
        0.99900150299072266,
        0.94500631093978882,
        0.9998440146446228
      ],
      "min": [
        -0.9999273419380188,
        -0.9734189510345459,
        -0.9998440146446228
      ],
      "type": "VEC3"
    },
    {
      "bufferView": 3,
      "byteOffset": 11424,
      "componentType": 5126,
      "count": 89,
      "max": [
        0.93974721431732178,
        0.35076749324798584,
        0.9998440146446228,
        1
      ],
      "min": [
        -0.93837255239486694,
        -0.34544113278388977,
        -0.9998440146446228,
        1
      ],
      "type": "VEC4"
    },
    {
      "bufferView": 1,
      "byteOffset": 17136,
      "componentType": 5126,
      "count": 89,
      "max": [
        0.91574221849441528,
        0.29154175519943237
      ],
      "min": [
        0.64237034320831299,
        0.054479539394378662
      ],
      "type": "VEC2"
    },
    {
      "bufferView": 1,
      "byteOffset": 17848,
      "componentType": 5126,
      "count": 89,
      "max": [
        0.91574221849441528,
        0.29154175519943237
      ],
      "min": [
        0.64237034320831299,
        0.054479539394378662
      ],
      "type": "VEC2"
    },
    {
      "bufferView": 1,
      "byteOffset": 18560,
      "componentType": 5126,
      "count": 89,
      "max": [
        0.91574221849441528,
        0.29154175519943237
      ],
      "min": [
        0.64237034320831299,
        0.054479539394378662
      ],
      "type": "VEC2"
    },
    {
      "bufferView": 0,
      "byteOffset": 8760,
      "componentType": 5125,
      "count": 276,
      "max": [
        88
      ],
      "min": [
        0
      ],
      "type": "SCALAR"
    },
    {
      "bufferView": 2,
      "byteOffset": 19272,
      "componentType": 5126,
      "count": 39,
      "max": [
        0.17819273471832275,
        0.4408913254737854,
        0.023002803325653076
      ],
      "min": [
        -0.17520821094512939,
        -0.4574199914932251,
        -0.015774503350257874
      ],
      "type": "VEC3"
    },
    {
      "bufferView": 2,
      "byteOffset": 19740,
      "componentType": 5126,
      "count": 39,
      "max": [
        0.96488374471664429,
        0.98142963647842407,
        0.9995579719543457
      ],
      "min": [
        -0.8828427791595459,
        -0.93829977512359619,
        -0.82807570695877075
      ],
      "type": "VEC3"
    },
    {
      "bufferView": 3,
      "byteOffset": 12848,
      "componentType": 5126,
      "count": 39,
      "max": [
        0.96188092231750488,
        0.97213929891586304,
        0.9415886402130127,
        1
      ],
      "min": [
        -0.78027963638305664,
        -0.97243285179138184,
        -0.96759945154190063,
        1
      ],
      "type": "VEC4"
    },
    {
      "bufferView": 1,
      "byteOffset": 19272,
      "componentType": 5126,
      "count": 39,
      "max": [
        0.8673853874206543,
        0.86928719282150269
      ],
      "min": [
        0.51469242572784424,
        0.15547275543212891
      ],
      "type": "VEC2"
    },
    {
      "bufferView": 1,
      "byteOffset": 19584,
      "componentType": 5126,
      "count": 39,
      "max": [
        0.8673853874206543,
        0.86928719282150269
      ],
      "min": [
        0.51469242572784424,
        0.15547275543212891
      ],
      "type": "VEC2"
    },
    {
      "bufferView": 1,
      "byteOffset": 19896,
      "componentType": 5126,
      "count": 39,
      "max": [
        0.8673853874206543,
        0.86928719282150269
      ],
      "min": [
        0.51469242572784424,
        0.15547275543212891
      ],
      "type": "VEC2"
    },
    {
      "bufferView": 0,
      "byteOffset": 9864,
      "componentType": 5125,
      "count": 120,
      "max": [
        38
      ],
      "min": [
        0
      ],
      "type": "SCALAR"
    }
  ],
  "asset": {
    "extras": {
      "author": "Agustín Hönnun (https://sketchfab.com/Agustin_Honnun)",
      "license": "CC-BY-4.0 (http://creativecommons.org/licenses/by/4.0/)",
      "source": "https://sketchfab.com/3d-models/rowing-boat-prop-free-agustin-honnun-afdd9821de124cd0bd6003b433d4c3f2",
      "title": "Rowing Boat | PROP | FREE | Agustin Honnun"
    },
    "generator": "Sketchfab-8.77.2",
    "version": "2.0"
  },
  "bufferViews": [
    {
      "buffer": 0,
      "byteLength": 10344,
      "byteOffset": 0,
      "name": "floatBufferViews",
      "target": 34963
    },
    {
      "buffer": 0,
      "byteLength": 20208,
      "byteOffset": 10344,
      "byteStride": 8,
      "name": "floatBufferViews",
      "target": 34962
    },
    {
      "buffer": 0,
      "byteLength": 20208,
      "byteOffset": 30552,
      "byteStride": 12,
      "name": "floatBufferViews",
      "target": 34962
    },
    {
      "buffer": 0,
      "byteLength": 13472,
      "byteOffset": 50760,
      "byteStride": 16,
      "name": "floatBufferViews",
      "target": 34962
    }
  ],
  "buffers": [
    {
      "byteLength": 64232,
      "uri": "scene.bin"
    }
  ],
  "images": [
    {
      "uri": "textures/Boat_MAT_baseColor.png"
    },
    {
      "uri": "textures/Boat_MAT_metallicRoughness.png"
    },
    {
      "uri": "textures/Boat_MAT_normal.png"
    }
  ],
  "materials": [
    {
      "doubleSided": false,
      "name": "Boat_MAT",
      "normalTexture": {
        "index": 2,
        "scale": 1,
        "texCoord": 0
      },
      "occlusionTexture": {
        "index": 1,
        "strength": 1,
        "texCoord": 0
      },
      "pbrMetallicRoughness": {
        "baseColorFactor": [
          1,
          1,
          1,
          1
        ],
        "baseColorTexture": {
          "index": 0,
          "texCoord": 0
        },
        "metallicFactor": 1,
        "metallicRoughnessTexture": {
          "index": 1,
          "texCoord": 0
        },
        "roughnessFactor": 1
      }
    }
  ],
  "meshes": [
    {
      "name": "Boat_low_Boat_MAT_0",
      "primitives": [
        {
          "attributes": {
            "NORMAL": 1,
            "POSITION": 0,
            "TANGENT": 2,
            "TEXCOORD_0": 3,
            "TEXCOORD_1": 4,
            "TEXCOORD_2": 5
          },
          "indices": 6,
          "material": 0,
          "mode": 4
        }
      ]
    },
    {
      "name": "Planks1_low_Boat_MAT_0",
      "primitives": [
        {
          "attributes": {
            "NORMAL": 8,
            "POSITION": 7,
            "TANGENT": 9,
            "TEXCOORD_0": 10,
            "TEXCOORD_1": 11,
            "TEXCOORD_2": 12
          },
          "indices": 13,
          "material": 0,
          "mode": 4
        }
      ]
    },
    {
      "name": "Planks2_low_Boat_MAT_0",
      "primitives": [
        {
          "attributes": {
            "NORMAL": 15,
            "POSITION": 14,
            "TANGENT": 16,
            "TEXCOORD_0": 17,
            "TEXCOORD_1": 18,
            "TEXCOORD_2": 19
          },
          "indices": 20,
          "material": 0,
          "mode": 4
        }
      ]
    },
    {
      "name": "Rowing_low_Boat_MAT_0",
      "primitives": [
        {
          "attributes": {
            "NORMAL": 22,
            "POSITION": 21,
            "TANGENT": 23,
            "TEXCOORD_0": 24,
            "TEXCOORD_1": 25,
            "TEXCOORD_2": 26
          },
          "indices": 27,
          "material": 0,
          "mode": 4
        }
      ]
    },
    {
      "name": "RowingHandle1_low_Boat_MAT_0",
      "primitives": [
        {
          "attributes": {
            "NORMAL": 29,
            "POSITION": 28,
            "TANGENT": 30,
            "TEXCOORD_0": 31,
            "TEXCOORD_1": 32,
            "TEXCOORD_2": 33
          },
          "indices": 34,
          "material": 0,
          "mode": 4
        }
      ]
    },
    {
      "name": "Rowing_low.001_Boat_MAT_0",
      "primitives": [
        {
          "attributes": {
            "NORMAL": 36,
            "POSITION": 35,
            "TANGENT": 37,
            "TEXCOORD_0": 38,
            "TEXCOORD_1": 39,
            "TEXCOORD_2": 40
          },
          "indices": 41,
          "material": 0,
          "mode": 4
        }
      ]
    },
    {
      "name": "RowingHandle2_low_Boat_MAT_0",
      "primitives": [
        {
          "attributes": {
            "NORMAL": 43,
            "POSITION": 42,
            "TANGENT": 44,
            "TEXCOORD_0": 45,
            "TEXCOORD_1": 46,
            "TEXCOORD_2": 47
          },
          "indices": 48,
          "material": 0,
          "mode": 4
        }
      ]
    }
  ],
  "nodes": [
    {
      "children": [
        1
      ],
      "name": "RootNode (gltf orientation matrix)",
      "rotation": [
        -0.70710678118654746,
        -0,
        -0,
        0.70710678118654757
      ]
    },
    {
      "children": [
        2
      ],
      "matrix": [
        0.01997087337076664,
        0,
        0,
        0,
        0,
        0.01997087337076664,
        0,
        0,
        0,
        0,
        0.01997087337076664,
        0,
        0,
        0,
        0,
        1
      ],
      "name": "RootNode (model correction matrix)"
    },
    {
      "children": [
        3
      ],
      "matrix": [
        1,
        0,
        0,
        0,
        0,
        0,
        1,
        0,
        0,
        -1,
        0,
        0,
        0,
        0,
        0,
        1
      ],
      "name": "04c31a5792a5492ab88dff760bb0916c.fbx"
    },
    {
      "children": [
        4,
        6,
        8,
        10,
        12,
        14,
        16
      ],
      "name": "RootNode"
    },
    {
      "children": [
        5
      ],
      "matrix": [
        100,
        0,
        0,
        0,
        0,
        -1.6292067939183141e-05,
        -99.999999999998678,
        0,
        0,
        99.999999999998678,
        -1.6292067939183141e-05,
        0,
        0,
        0,
        0,
        1
      ],
      "name": "Boat_low"
    },
    {
      "mesh": 0,
      "name": "Boat_low_Boat_MAT_0"
    },
    {
      "children": [
        7
      ],
      "matrix": [
        100,
        0,
        0,
        0,
        0,
        -1.6292067939183141e-05,
        -99.999999999998678,
        0,
        0,
        99.999999999998678,
        -1.6292067939183141e-05,
        0,
        0,
        0,
        0,
        1
      ],
      "name": "Planks1_low"
    },
    {
      "mesh": 1,
      "name": "Planks1_low_Boat_MAT_0"
    },
    {
      "children": [
        9
      ],
      "matrix": [
        100,
        0,
        0,
        0,
        0,
        -1.6292067939183141e-05,
        -99.999999999998678,
        0,
        0,
        99.999999999998678,
        -1.6292067939183141e-05,
        0,
        0,
        0,
        0,
        1
      ],
      "name": "Planks2_low"
    },
    {
      "mesh": 2,
      "name": "Planks2_low_Boat_MAT_0"
    },
    {
      "children": [
        11
      ],
      "matrix": [
        100,
        0,
        0,
        0,
        -0,
        -1.6292067939183141e-05,
        -99.999999999998678,
        0,
        0,
        99.999999999998678,
        -1.6292067939183141e-05,
        0,
        -51.020725250244141,
        24.173540115356445,
        36.043022155761719,
        1
      ],
      "name": "Rowing_low"
    },
    {
      "mesh": 3,
      "name": "Rowing_low_Boat_MAT_0"
    },
    {
      "children": [
        13
      ],
      "matrix": [
        100,
        0,
        0,
        0,
        -0,
        -1.6292067939183141e-05,
        -99.999999999998678,
        0,
        0,
        99.999999999998678,
        -1.6292067939183141e-05,
        0,
        -67.998275756835938,
        24.433992385864258,
        -10.069376945495605,
        1
      ],
      "name": "RowingHandle1_low"
    },
    {
      "mesh": 4,
      "name": "RowingHandle1_low_Boat_MAT_0"
    },
    {
      "children": [
        15
      ],
      "matrix": [
        100,
        0,
        0,
        0,
        -0,
        -1.6292067939183141e-05,
        -99.999999999998678,
        0,
        0,
        99.999999999998678,
        -1.6292067939183141e-05,
        0,
        -37.367446899414062,
        23.745193481445312,
        31.008520126342773,
        1
      ],
      "name": "Rowing_low.001"
    },
    {
      "mesh": 5,
      "name": "Rowing_low.001_Boat_MAT_0"
    },
    {
      "children": [
        17
      ],
      "matrix": [
        100,
        0,
        0,
        0,
        -0,
        -1.6292067939183141e-05,
        -99.999999999998678,
        0,
        0,
        99.999999999998678,
        -1.6292067939183141e-05,
        0,
        -54.345012664794922,
        24.005647659301758,
        -15.103870391845703,
        1
      ],
      "name": "RowingHandle2_low"
    },
    {
      "mesh": 6,
      "name": "RowingHandle2_low_Boat_MAT_0"
    }
  ],
  "samplers": [
    {
      "magFilter": 9729,
      "minFilter": 9987,
      "wrapS": 10497,
      "wrapT": 10497
    }
  ],
  "scene": 0,
  "scenes": [
    {
      "name": "OSG_Scene",
      "nodes": [
        0
      ]
    }
  ],
  "textures": [
    {
      "sampler": 0,
      "source": 0
    },
    {
      "sampler": 0,
      "source": 1
    },
    {
      "sampler": 0,
      "source": 2
    }
  ]
}

