{
  "accessors": [
    {
      "bufferView": 3,
      "componentType": 5126,
      "count": 560,
      "max": [
        1.2973933219909668,
        0.18894585967063904,
        1.1036347150802612
      ],
      "min": [
        -1.2973933219909668,
        -0.015220530331134796,
        -1.3641579151153564
      ],
      "type": "VEC3"
    },
    {
      "bufferView": 3,
      "byteOffset": 6720,
      "componentType": 5126,
      "count": 560,
      "max": [
        0.99999582767486572,
        0.015141746029257774,
        0.97656255960464478
      ],
      "min": [
        -1,
        -0.99996083974838257,
        -0.95204049348831177
      ],
      "type": "VEC3"
    },
    {
      "bufferView": 2,
      "componentType": 5126,
      "count": 560,
      "max": [
        1,
        1
      ],
      "min": [
        0,
        0
      ],
      "type": "VEC2"
    },
    {
      "bufferView": 1,
      "componentType": 5125,
      "count": 840,
      "max": [
        559
      ],
      "min": [
        0
      ],
      "type": "SCALAR"
    },
    {
      "bufferView": 3,
      "byteOffset": 13440,
      "componentType": 5126,
      "count": 160,
      "max": [
        1.2973933219909668,
        0.0018853233195841312,
        1.1036347150802612
      ],
      "min": [
        -1.2973933219909668,
        -0.017011828720569611,
        -1.3641579151153564
      ],
      "type": "VEC3"
    },
    {
      "bufferView": 3,
      "byteOffset": 15360,
      "componentType": 5126,
      "count": 160,
      "max": [
        0.056907851248979568,
        0.99970978498458862,
        0.058743398636579514
      ],
      "min": [
        -0.056907851248979568,
        0.9982675313949585,
        -0.049501948058605194
      ],
      "type": "VEC3"
    },
    {
      "bufferView": 2,
      "byteOffset": 4480,
      "componentType": 5126,
      "count": 160,
      "max": [
        1,
        1
      ],
      "min": [
        0,
        0
      ],
      "type": "VEC2"
    },
    {
      "bufferView": 1,
      "byteOffset": 3360,
      "componentType": 5125,
      "count": 240,
      "max": [
        159
      ],
      "min": [
        0
      ],
      "type": "SCALAR"
    },
    {
      "bufferView": 5,
      "componentType": 5126,
      "count": 7,
      "max": [
        1,
        0.95105648040771484,
        0,
        0,
        0,
        1,
        1,
        0,
        0.95105648040771484,
        0.8090168833732605,
        1,
        0,
        0,
        0,
        0,
        1
      ],
      "min": [
        -0.80901765823364258,
        -0.95105659961700439,
        0,
        0,
        0,
        0,
        0,
        0,
        -0.95105659961700439,
        -1,
        0,
        0,
        0,
        -0.067005075514316559,
        -0.067005082964897156,
        1
      ],
      "type": "MAT4"
    },
    {
      "bufferView": 0,
      "componentType": 5123,
      "count": 560,
      "max": [
        6,
        6,
        6,
        6
      ],
      "min": [
        1,
        1,
        1,
        2
      ],
      "type": "VEC4"
    },
    {
      "bufferView": 4,
      "componentType": 5126,
      "count": 560,
      "max": [
        1,
        0.45557084679603577,
        0.2606939971446991,
        0.084617890417575836
      ],
      "min": [
        0.46430650353431702,
        0,
        0,
        0
      ],
      "type": "VEC4"
    },
    {
      "bufferView": 0,
      "byteOffset": 4480,
      "componentType": 5123,
      "count": 160,
      "max": [
        6,
        6,
        6,
        6
      ],
      "min": [
        1,
        1,
        1,
        2
      ],
      "type": "VEC4"
    },
    {
      "bufferView": 4,
      "byteOffset": 8960,
      "componentType": 5126,
      "count": 160,
      "max": [
        1,
        0.41623711585998535,
        0.2606939971446991,
        0.084617890417575836
      ],
      "min": [
        0.44603064656257629,
        0,
        0,
        0
      ],
      "type": "VEC4"
    },
    {
      "bufferView": 6,
      "componentType": 5126,
      "count": 81,
      "max": [
        3.3333332538604736
      ],
      "min": [
        0
      ],
      "type": "SCALAR"
    },
    {
      "bufferView": 7,
      "componentType": 5126,
      "count": 81,
      "max": [
        0.0039276117458939552,
        -0.0006850510835647583,
        -0.0087125394493341446
      ],
      "min": [
        0.0026100536342710257,
        -0.0006850510835647583,
        -0.00919358991086483
      ],
      "type": "VEC3"
    },
    {
      "bufferView": 6,
      "byteOffset": 324,
      "componentType": 5126,
      "count": 81,
      "max": [
        3.3333332538604736
      ],
      "min": [
        0
      ],
      "type": "SCALAR"
    },
    {
      "bufferView": 8,
      "componentType": 5126,
      "count": 81,
      "max": [
        -0.70637482404708862,
        0.032166555523872375,
        0.032166555523872375,
        0.70710664987564087
      ],
      "min": [
        -0.70710664987564087,
        -0.019756089895963669,
        -0.019756089895963669,
        0.70637482404708862
      ],
      "type": "VEC4"
    },
    {
      "bufferView": 6,
      "byteOffset": 648,
      "componentType": 5126,
      "count": 39,
      "max": [
        3.3333332538604736
      ],
      "min": [
        0
      ],
      "type": "SCALAR"
    },
    {
      "bufferView": 7,
      "byteOffset": 972,
      "componentType": 5126,
      "count": 39,
      "max": [
        0.99999994039535522,
        0.99999994039535522,
        1
      ],
      "min": [
        0.99999988079071045,
        0.99999988079071045,
        1
      ],
      "type": "VEC3"
    },
    {
      "bufferView": 6,
      "byteOffset": 804,
      "componentType": 5126,
      "count": 81,
      "max": [
        3.3333332538604736
      ],
      "min": [
        0
      ],
      "type": "SCALAR"
    },
    {
      "bufferView": 7,
      "byteOffset": 1440,
      "componentType": 5126,
      "count": 81,
      "max": [
        -0.00023346609668806195,
        -2.168118953704834e-06,
        0.00048619898734614253
      ],
      "min": [
        -0.00034688209416344762,
        -2.168118953704834e-06,
        0.0004129997396375984
      ],
      "type": "VEC3"
    },
    {
      "bufferView": 6,
      "byteOffset": 1128,
      "componentType": 5126,
      "count": 81,
      "max": [
        3.3333332538604736
      ],
      "min": [
        0
      ],
      "type": "SCALAR"
    },
    {
      "bufferView": 8,
      "byteOffset": 1296,
      "componentType": 5126,
      "count": 81,
      "max": [
        -0.54556649923324585,
        0.44984135031700134,
        0.44984135031700134,
        0.59757047891616821
      ],
      "min": [
        -0.59757047891616821,
        0.37803375720977783,
        0.37803378701210022,
        0.54556655883789062
      ],
      "type": "VEC4"
    },
    {
      "bufferView": 6,
      "byteOffset": 1452,
      "componentType": 5126,
      "count": 53,
      "max": [
        3.3333332538604736
      ],
      "min": [
        0
      ],
      "type": "SCALAR"
    },
    {
      "bufferView": 7,
      "byteOffset": 2412,
      "componentType": 5126,
      "count": 53,
      "max": [
        1.0000001192092896,
        1,
        1
      ],
      "min": [
        0.99999988079071045,
        0.99999982118606567,
        1
      ],
      "type": "VEC3"
    },
    {
      "bufferView": 6,
      "byteOffset": 1664,
      "componentType": 5126,
      "count": 81,
      "max": [
        3.3333332538604736
      ],
      "min": [
        0
      ],
      "type": "SCALAR"
    },
    {
      "bufferView": 7,
      "byteOffset": 3048,
      "componentType": 5126,
      "count": 81,
      "max": [
        -0.00036488022306002676,
        -3.4123659133911133e-06,
        0.00056911463616415858
      ],
      "min": [
        -0.00045032880734652281,
        -3.4123659133911133e-06,
        0.00050421524792909622
      ],
      "type": "VEC3"
    },
    {
      "bufferView": 6,
      "byteOffset": 1988,
      "componentType": 5126,
      "count": 81,
      "max": [
        3.3333332538604736
      ],
      "min": [
        0
      ],
      "type": "SCALAR"
    },
    {
      "bufferView": 8,
      "byteOffset": 2592,
      "componentType": 5126,
      "count": 81,
      "max": [
        -0.20694911479949951,
        0.67614519596099854,
        0.67614471912384033,
        0.25995540618896484
      ],
      "min": [
        -0.2599550187587738,
        0.65758925676345825,
        0.65758877992630005,
        0.20694939792156219
      ],
      "type": "VEC4"
    },
    {
      "bufferView": 6,
      "byteOffset": 2312,
      "componentType": 5126,
      "count": 52,
      "max": [
        3.3333332538604736
      ],
      "min": [
        0
      ],
      "type": "SCALAR"
    },
    {
      "bufferView": 7,
      "byteOffset": 4020,
      "componentType": 5126,
      "count": 52,
      "max": [
        0.99999940395355225,
        1,
        1
      ],
      "min": [
        0.99999922513961792,
        0.99999982118606567,
        1
      ],
      "type": "VEC3"
    },
    {
      "bufferView": 6,
      "byteOffset": 2520,
      "componentType": 5126,
      "count": 81,
      "max": [
        3.3333332538604736
      ],
      "min": [
        0
      ],
      "type": "SCALAR"
    },
    {
      "bufferView": 7,
      "byteOffset": 4644,
      "componentType": 5126,
      "count": 81,
      "max": [
        -0.0061235013417899609,
        -0.0044320449233055115,
        -0.022502018138766289
      ],
      "min": [
        -0.0082434900104999542,
        -0.0044320449233055115,
        -0.023168915882706642
      ],
      "type": "VEC3"
    },
    {
      "bufferView": 6,
      "byteOffset": 2844,
      "componentType": 5126,
      "count": 81,
      "max": [
        3.3333332538604736
      ],
      "min": [
        0
      ],
      "type": "SCALAR"
    },
    {
      "bufferView": 8,
      "byteOffset": 3888,
      "componentType": 5126,
      "count": 81,
      "max": [
        -0.19265565276145935,
        -0.67069065570831299,
        -0.67069053649902344,
        0.22399580478668213
      ],
      "min": [
        -0.22399580478668213,
        -0.68035566806793213,
        -0.68035560846328735,
        0.19265574216842651
      ],
      "type": "VEC4"
    },
    {
      "bufferView": 6,
      "byteOffset": 3168,
      "componentType": 5126,
      "count": 58,
      "max": [
        3.3333332538604736
      ],
      "min": [
        0
      ],
      "type": "SCALAR"
    },
    {
      "bufferView": 7,
      "byteOffset": 5616,
      "componentType": 5126,
      "count": 58,
      "max": [
        0.99999994039535522,
        1.0000001192092896,
        1
      ],
      "min": [
        0.99999970197677612,
        0.99999982118606567,
        1
      ],
      "type": "VEC3"
    },
    {
      "bufferView": 6,
      "byteOffset": 3400,
      "componentType": 5126,
      "count": 81,
      "max": [
        3.3333332538604736
      ],
      "min": [
        0
      ],
      "type": "SCALAR"
    },
    {
      "bufferView": 7,
      "byteOffset": 6312,
      "componentType": 5126,
      "count": 81,
      "max": [
        -0.0013497427571564913,
        -5.7838857173919678e-05,
        0.0024341684766113758
      ],
      "min": [
        -0.0021735860500484705,
        -5.7838857173919678e-05,
        0.0017385352402925491
      ],
      "type": "VEC3"
    },
    {
      "bufferView": 6,
      "byteOffset": 3724,
      "componentType": 5126,
      "count": 81,
      "max": [
        3.3333332538604736
      ],
      "min": [
        0
      ],
      "type": "SCALAR"
    },
    {
      "bufferView": 8,
      "byteOffset": 5184,
      "componentType": 5126,
      "count": 81,
      "max": [
        -0.53363054990768433,
        -0.35178881883621216,
        -0.35178884863853455,
        0.6133878231048584
      ],
      "min": [
        -0.6133878231048584,
        -0.46393793821334839,
        -0.46393793821334839,
        0.5336306095123291
      ],
      "type": "VEC4"
    },
    {
      "bufferView": 6,
      "byteOffset": 4048,
      "componentType": 5126,
      "count": 44,
      "max": [
        3.3333332538604736
      ],
      "min": [
        0
      ],
      "type": "SCALAR"
    },
    {
      "bufferView": 7,
      "byteOffset": 7284,
      "componentType": 5126,
      "count": 44,
      "max": [
        1.0000001192092896,
        1,
        1
      ],
      "min": [
        0.99999988079071045,
        0.99999988079071045,
        1
      ],
      "type": "VEC3"
    }
  ],
  "animations": [
    {
      "channels": [
        {
          "sampler": 0,
          "target": {
            "node": 11,
            "path": "translation"
          }
        },
        {
          "sampler": 1,
          "target": {
            "node": 11,
            "path": "rotation"
          }
        },
        {
          "sampler": 2,
          "target": {
            "node": 11,
            "path": "scale"
          }
        },
        {
          "sampler": 3,
          "target": {
            "node": 12,
            "path": "translation"
          }
        },
        {
          "sampler": 4,
          "target": {
            "node": 12,
            "path": "rotation"
          }
        },
        {
          "sampler": 5,
          "target": {
            "node": 12,
            "path": "scale"
          }
        },
        {
          "sampler": 6,
          "target": {
            "node": 13,
            "path": "translation"
          }
        },
        {
          "sampler": 7,
          "target": {
            "node": 13,
            "path": "rotation"
          }
        },
        {
          "sampler": 8,
          "target": {
            "node": 13,
            "path": "scale"
          }
        },
        {
          "sampler": 9,
          "target": {
            "node": 14,
            "path": "translation"
          }
        },
        {
          "sampler": 10,
          "target": {
            "node": 14,
            "path": "rotation"
          }
        },
        {
          "sampler": 11,
          "target": {
            "node": 14,
            "path": "scale"
          }
        },
        {
          "sampler": 12,
          "target": {
            "node": 15,
            "path": "translation"
          }
        },
        {
          "sampler": 13,
          "target": {
            "node": 15,
            "path": "rotation"
          }
        },
        {
          "sampler": 14,
          "target": {
            "node": 15,
            "path": "scale"
          }
        }
      ],
      "name": "ArmatureAction",
      "samplers": [
        {
          "input": 13,
          "interpolation": "LINEAR",
          "output": 14
        },
        {
          "input": 15,
          "interpolation": "LINEAR",
          "output": 16
        },
        {
          "input": 17,
          "interpolation": "LINEAR",
          "output": 18
        },
        {
          "input": 19,
          "interpolation": "LINEAR",
          "output": 20
        },
        {
          "input": 21,
          "interpolation": "LINEAR",
          "output": 22
        },
        {
          "input": 23,
          "interpolation": "LINEAR",
          "output": 24
        },
        {
          "input": 25,
          "interpolation": "LINEAR",
          "output": 26
        },
        {
          "input": 27,
          "interpolation": "LINEAR",
          "output": 28
        },
        {
          "input": 29,
          "interpolation": "LINEAR",
          "output": 30
        },
        {
          "input": 31,
          "interpolation": "LINEAR",
          "output": 32
        },
        {
          "input": 33,
          "interpolation": "LINEAR",
          "output": 34
        },
        {
          "input": 35,
          "interpolation": "LINEAR",
          "output": 36
        },
        {
          "input": 37,
          "interpolation": "LINEAR",
          "output": 38
        },
        {
          "input": 39,
          "interpolation": "LINEAR",
          "output": 40
        },
        {
          "input": 41,
          "interpolation": "LINEAR",
          "output": 42
        }
      ]
    }
  ],
  "asset": {
    "extras": {
      "author": "rkuhlf (https://sketchfab.com/rkuhlf)",
      "license": "CC-BY-4.0 (http://creativecommons.org/licenses/by/4.0/)",
      "source": "https://sketchfab.com/3d-models/star-fish-6fac7eeb54f2474296a0c473214d44c1",
      "title": "Star Fish"
    },
    "generator": "Sketchfab-8.51.0",
    "version": "2.0"
  },
  "bufferViews": [
    {
      "buffer": 0,
      "byteLength": 5760,
      "byteOffset": 0,
      "byteStride": 8,
      "name": "shortBufferViews",
      "target": 34962
    },
    {
      "buffer": 0,
      "byteLength": 4320,
      "byteOffset": 5760,
      "name": "floatBufferViews",
      "target": 34963
    },
    {
      "buffer": 0,
      "byteLength": 5760,
      "byteOffset": 10080,
      "byteStride": 8,
      "name": "floatBufferViews",
      "target": 34962
    },
    {
      "buffer": 0,
      "byteLength": 17280,
      "byteOffset": 15840,
      "byteStride": 12,
      "name": "floatBufferViews",
      "target": 34962
    },
    {
      "buffer": 0,
      "byteLength": 11520,
      "byteOffset": 33120,
      "byteStride": 16,
      "name": "floatBufferViews",
      "target": 34962
    },
    {
      "buffer": 0,
      "byteLength": 448,
      "byteOffset": 44640,
      "byteStride": 64,
      "name": "floatBufferViews"
    },
    {
      "buffer": 0,
      "byteLength": 4224,
      "byteOffset": 45088,
      "name": "floatBufferViews"
    },
    {
      "buffer": 0,
      "byteLength": 7812,
      "byteOffset": 49312,
      "byteStride": 12,
      "name": "floatBufferViews"
    },
    {
      "buffer": 0,
      "byteLength": 6480,
      "byteOffset": 57124,
      "byteStride": 16,
      "name": "floatBufferViews"
    }
  ],
  "buffers": [
    {
      "byteLength": 63604,
      "uri": "scene.bin"
    }
  ],
  "materials": [
    {
      "doubleSided": true,
      "emissiveFactor": [
        0,
        0,
        0
      ],
      "name": "Starfish",
      "pbrMetallicRoughness": {
        "baseColorFactor": [
          0.65837500000000004,
          0.040915199999999999,
          0.026241199999999999,
          1
        ],
        "metallicFactor": 0,
        "roughnessFactor": 0.70454499999999998
      }
    },
    {
      "doubleSided": true,
      "emissiveFactor": [
        0,
        0,
        0
      ],
      "name": "Underside",
      "pbrMetallicRoughness": {
        "baseColorFactor": [
          0.87007900000000005,
          0.27088200000000001,
          0.199851,
          1
        ],
        "metallicFactor": 0,
        "roughnessFactor": 0.77272700000000005
      }
    }
  ],
  "meshes": [
    {
      "primitives": [
        {
          "attributes": {
            "JOINTS_0": 9,
            "NORMAL": 1,
            "POSITION": 0,
            "TEXCOORD_0": 2,
            "WEIGHTS_0": 10
          },
          "indices": 3,
          "material": 0,
          "mode": 4
        }
      ]
    },
    {
      "primitives": [
        {
          "attributes": {
            "JOINTS_0": 11,
            "NORMAL": 5,
            "POSITION": 4,
            "TEXCOORD_0": 6,
            "WEIGHTS_0": 12
          },
          "indices": 7,
          "material": 1,
          "mode": 4
        }
      ]
    }
  ],
  "nodes": [
    {
      "children": [
        1
      ],
      "name": "RootNode (gltf orientation matrix)",
      "rotation": [
        -0.70710678118654746,
        -0,
        -0,
        0.70710678118654757
      ]
    },
    {
      "children": [
        2
      ],
      "matrix": [
        0.51141691207885742,
        0,
        0,
        0,
        0,
        0.51141691207885742,
        0,
        0,
        0,
        0,
        0.51141691207885742,
        0,
        0,
        0,
        0,
        1
      ],
      "name": "RootNode (model correction matrix)"
    },
    {
      "children": [
        3
      ],
      "name": "root"
    },
    {
      "children": [
        4
      ],
      "matrix": [
        1,
        0,
        0,
        0,
        0,
        2.2204460492503131e-16,
        1,
        0,
        0,
        -1,
        2.2204460492503131e-16,
        0,
        0,
        0,
        0,
        1
      ],
      "name": "GLTF_SceneRootNode"
    },
    {
      "children": [
        5
      ],
      "matrix": [
        1,
        0,
        0,
        0,
        0,
        1,
        0,
        0,
        0,
        0,
        1,
        0,
        0,
        0.067005075514316559,
        0,
        1
      ],
      "name": "Armature_9"
    },
    {
      "children": [
        6,
        8,
        9,
        7
      ],
      "name": "GLTF_created_0"
    },
    {
      "children": [
        10,
        11,
        12,
        13,
        14,
        15
      ],
      "name": "GLTF_created_0_rootJoint"
    },
    {
      "name": "Plane_8"
    },
    {
      "mesh": 0,
      "name": "",
      "skin": 0
    },
    {
      "mesh": 1,
      "name": "",
      "skin": 0
    },
    {
      "name": "Bone_2"
    },
    {
      "name": "Bone.001_3",
      "rotation": [
        -0.70683342218399048,
        -0.019660456106066704,
        -0.019660456106066704,
        0.70683342218399048
      ],
      "scale": [
        0.99999994039535522,
        0.99999994039535522,
        1
      ],
      "translation": [
        0.0039251823909580708,
        -0.0006850510835647583,
        -0.0087134260684251785
      ]
    },
    {
      "name": "Bone.002_4",
      "rotation": [
        -0.5456702709197998,
        0.44971540570259094,
        0.44971537590026855,
        0.5456702709197998
      ],
      "scale": [
        0.99999994039535522,
        0.99999994039535522,
        1
      ],
      "translation": [
        -0.00023367522226180881,
        -2.168118953704834e-06,
        0.00048606406198814511
      ]
    },
    {
      "name": "Bone.003_5",
      "rotation": [
        -0.25985872745513916,
        0.65762728452682495,
        0.65762680768966675,
        0.25985908508300781
      ],
      "scale": [
        0.99999940395355225,
        0.99999988079071045,
        1
      ],
      "translation": [
        -0.00045017126831226051,
        -3.4123659133911133e-06,
        0.00050433492287993431
      ]
    },
    {
      "name": "Bone.004_6",
      "rotation": [
        -0.19271396100521088,
        -0.68033921718597412,
        -0.68033903837203979,
        0.19271396100521088
      ],
      "scale": [
        0.99999982118606567,
        0.99999994039535522,
        1
      ],
      "translation": [
        -0.0061274077743291855,
        -0.0044320449233055115,
        -0.023167688399553299
      ]
    },
    {
      "name": "Bone.005_7",
      "rotation": [
        -0.6132621169090271,
        -0.35200786590576172,
        -0.35200786590576172,
        0.61326217651367188
      ],
      "scale": [
        1,
        0.99999994039535522,
        1
      ],
      "translation": [
        -0.0013512619771063328,
        -5.7838857173919678e-05,
        0.0024328858125954866
      ]
    }
  ],
  "scene": 0,
  "scenes": [
    {
      "name": "OSG_Scene",
      "nodes": [
        0
      ]
    }
  ],
  "skins": [
    {
      "inverseBindMatrices": 8,
      "joints": [
        6,
        10,
        11,
        12,
        13,
        14,
        15
      ],
      "skeleton": 6
    }
  ]
}

