{
  "accessors": [
    {
      "bufferView": 2,
      "componentType": 5126,
      "count": 1345,
      "max": [
        1.3132989406585693,
        1.3619359731674194,
        2.4570400714874268
      ],
      "min": [
        -1.301874041557312,
        -1.3536850214004517,
        -2.2982571125030518
      ],
      "type": "VEC3"
    },
    {
      "bufferView": 2,
      "byteOffset": 16140,
      "componentType": 5126,
      "count": 1345,
      "max": [
        0.99666088819503784,
        0.99989610910415649,
        0.99925351142883301
      ],
      "min": [
        -0.99998873472213745,
        -0.99702173471450806,
        -0.98823612928390503
      ],
      "type": "VEC3"
    },
    {
      "bufferView": 1,
      "componentType": 5126,
      "count": 1345,
      "max": [
        0.99804002046585083,
        0.93989002704620361
      ],
      "min": [
        0.0019499999471008778,
        0.0019499999471008778
      ],
      "type": "VEC2"
    },
    {
      "bufferView": 0,
      "componentType": 5125,
      "count": 7458,
      "max": [
        1344
      ],
      "min": [
        0
      ],
      "type": "SCALAR"
    }
  ],
  "asset": {
    "extras": {
      "author": "regularpigeon (https://sketchfab.com/regularpigeon)",
      "license": "CC-BY-4.0 (http://creativecommons.org/licenses/by/4.0/)",
      "source": "https://sketchfab.com/3d-models/conch-shell-20d57dee0b6d4ed695e4fbe8b2cf4e1d",
      "title": "Conch Shell"
    },
    "generator": "Sketchfab-8.75.0",
    "version": "2.0"
  },
  "bufferViews": [
    {
      "buffer": 0,
      "byteLength": 29832,
      "byteOffset": 0,
      "name": "floatBufferViews",
      "target": 34963
    },
    {
      "buffer": 0,
      "byteLength": 10760,
      "byteOffset": 29832,
      "byteStride": 8,
      "name": "floatBufferViews",
      "target": 34962
    },
    {
      "buffer": 0,
      "byteLength": 32280,
      "byteOffset": 40592,
      "byteStride": 12,
      "name": "floatBufferViews",
      "target": 34962
    }
  ],
  "buffers": [
    {
      "byteLength": 72872,
      "uri": "scene.bin"
    }
  ],
  "extensionsUsed": [
    "KHR_materials_unlit"
  ],
  "images": [
    {
      "uri": "textures/shell_uvsdefaultMat_baseColor.png"
    }
  ],
  "materials": [
    {
      "doubleSided": true,
      "emissiveFactor": [
        0,
        0,
        0
      ],
      "extensions": {
        "KHR_materials_unlit": {}
      },
      "name": "shell_uvsdefaultMat",
      "pbrMetallicRoughness": {
        "baseColorFactor": [
          1,
          1,
          1,
          1
        ],
        "baseColorTexture": {
          "index": 0,
          "texCoord": 0
        },
        "metallicFactor": 0,
        "roughnessFactor": 1
      }
    }
  ],
  "meshes": [
    {
      "primitives": [
        {
          "attributes": {
            "NORMAL": 1,
            "POSITION": 0,
            "TEXCOORD_0": 2
          },
          "indices": 3,
          "material": 0,
          "mode": 4
        }
      ]
    }
  ],
  "nodes": [
    {
      "children": [
        1
      ],
      "name": "RootNode (gltf orientation matrix)",
      "rotation": [
        -0.70710678118654746,
        -0,
        -0,
        0.70710678118654757
      ]
    },
    {
      "children": [
        2
      ],
      "matrix": [
        -0.24338904023170471,
        -0.83710813522338867,
        0.48990991711616516,
        0,
        0.53025221824645996,
        -0.53777432441711426,
        -0.65546268224716187,
        0,
        0.81215411424636841,
        0.10024338215589523,
        0.57476681470870972,
        0,
        -0.059557836502790451,
        0.0031528216786682606,
        0.033659156411886215,
        1
      ],
      "name": "RootNode (model correction matrix)"
    },
    {
      "children": [
        3
      ],
      "name": "shell_curvatureLP.obj.cleaner.materialmerger.gles"
    },
    {
      "mesh": 0,
      "name": ""
    }
  ],
  "samplers": [
    {
      "magFilter": 9729,
      "minFilter": 9987,
      "wrapS": 10497,
      "wrapT": 10497
    }
  ],
  "scene": 0,
  "scenes": [
    {
      "name": "OSG_Scene",
      "nodes": [
        0
      ]
    }
  ],
  "textures": [
    {
      "sampler": 0,
      "source": 0
    }
  ]
}

